<svg width="156" height="22" viewBox="0 0 156 22" fill="none" xmlns="http://www.w3.org/2000/svg">
<path d="M14.875 9.5C14.875 11.224 14.5521 12.7005 13.9062 13.9297C13.2656 15.1536 12.3906 16.0911 11.2812 16.7422C10.1771 17.3932 8.92448 17.7187 7.52344 17.7187C6.1224 17.7187 4.86719 17.3932 3.75781 16.7422C2.65365 16.0859 1.77865 15.1458 1.13281 13.9219C0.492188 12.6927 0.171875 11.2187 0.171875 9.5C0.171875 7.77604 0.492188 6.30208 1.13281 5.07812C1.77865 3.84896 2.65365 2.90885 3.75781 2.25781C4.86719 1.60677 6.1224 1.28125 7.52344 1.28125C8.92448 1.28125 10.1771 1.60677 11.2812 2.25781C12.3906 2.90885 13.2656 3.84896 13.9062 5.07812C14.5521 6.30208 14.875 7.77604 14.875 9.5ZM11.9609 9.5C11.9609 8.28646 11.7708 7.26302 11.3906 6.42969C11.0156 5.59115 10.4948 4.95833 9.82812 4.53125C9.16146 4.09896 8.39323 3.88281 7.52344 3.88281C6.65365 3.88281 5.88542 4.09896 5.21875 4.53125C4.55208 4.95833 4.02865 5.59115 3.64844 6.42969C3.27344 7.26302 3.08594 8.28646 3.08594 9.5C3.08594 10.7135 3.27344 11.7396 3.64844 12.5781C4.02865 13.4115 4.55208 14.0443 5.21875 14.4766C5.88542 14.9036 6.65365 15.1172 7.52344 15.1172C8.39323 15.1172 9.16146 14.9036 9.82812 14.4766C10.4948 14.0443 11.0156 13.4115 11.3906 12.5781C11.7708 11.7396 11.9609 10.7135 11.9609 9.5ZM20.0684 13.7344L20.0605 10.3203H20.5137L24.8262 5.5H28.1309L22.8262 11.4062H22.2402L20.0684 13.7344ZM17.4902 17.5V1.5H20.3184V17.5H17.4902ZM25.0215 17.5L21.1152 12.0391L23.0215 10.0469L28.4043 17.5H25.0215ZM33.4688 17.7422C32.7083 17.7422 32.0234 17.6068 31.4141 17.3359C30.8099 17.0599 30.3307 16.6536 29.9766 16.1172C29.6276 15.5807 29.4531 14.9193 29.4531 14.1328C29.4531 13.4557 29.5781 12.8958 29.8281 12.4531C30.0781 12.0104 30.4193 11.6562 30.8516 11.3906C31.2839 11.125 31.7708 10.9245 32.3125 10.7891C32.8594 10.6484 33.4245 10.5469 34.0078 10.4844C34.7109 10.4115 35.2813 10.3464 35.7188 10.2891C36.1563 10.2266 36.474 10.1328 36.6719 10.0078C36.875 9.8776 36.9766 9.67708 36.9766 9.40625V9.35938C36.9766 8.77083 36.8021 8.3151 36.4531 7.99219C36.1042 7.66927 35.6016 7.50781 34.9453 7.50781C34.2526 7.50781 33.7031 7.65885 33.2969 7.96094C32.8958 8.26302 32.625 8.61979 32.4844 9.03125L29.8438 8.65625C30.0521 7.92708 30.3958 7.31771 30.875 6.82812C31.3542 6.33333 31.9401 5.96354 32.6328 5.71875C33.3255 5.46875 34.0911 5.34375 34.9297 5.34375C35.5078 5.34375 36.0833 5.41146 36.6563 5.54687C37.2292 5.68229 37.7526 5.90625 38.2266 6.21875C38.7005 6.52604 39.0807 6.94531 39.3672 7.47656C39.6589 8.00781 39.8047 8.67187 39.8047 9.46875V17.5H37.0859V15.8516H36.9922C36.8203 16.1849 36.5781 16.4974 36.2656 16.7891C35.9583 17.0755 35.5703 17.3073 35.1016 17.4844C34.638 17.6563 34.0938 17.7422 33.4688 17.7422ZM34.2031 15.6641C34.7708 15.6641 35.263 15.5521 35.6797 15.3281C36.0964 15.099 36.4167 14.7969 36.6406 14.4219C36.8698 14.0469 36.9844 13.638 36.9844 13.1953V11.7812C36.8958 11.8542 36.7448 11.9219 36.5312 11.9844C36.3229 12.0469 36.0885 12.1016 35.8281 12.1484C35.5677 12.1953 35.3099 12.237 35.0547 12.2734C34.7995 12.3099 34.5781 12.3411 34.3906 12.3672C33.9688 12.4245 33.5911 12.5182 33.2578 12.6484C32.9245 12.7786 32.6615 12.9609 32.4688 13.1953C32.276 13.4245 32.1797 13.7214 32.1797 14.0859C32.1797 14.6068 32.3698 15 32.75 15.2656C33.1302 15.5312 33.6146 15.6641 34.2031 15.6641ZM48.7266 5.5V7.6875H41.6328V5.5H48.7266ZM43.4063 17.5V4.36719C43.4063 3.55989 43.5729 2.88802 43.9063 2.35156C44.2448 1.8151 44.6979 1.41406 45.2656 1.14844C45.8333 0.882812 46.4635 0.749999 47.1563 0.749999C47.6458 0.749999 48.0807 0.789062 48.4609 0.867187C48.8411 0.945312 49.1224 1.01562 49.3047 1.07812L48.7422 3.26562C48.6224 3.22917 48.4714 3.19271 48.2891 3.15625C48.1068 3.11458 47.9036 3.09375 47.6797 3.09375C47.1536 3.09375 46.7813 3.22135 46.5625 3.47656C46.349 3.72656 46.2422 4.08594 46.2422 4.55469V17.5H43.4063ZM55.7246 17.7344C54.5527 17.7344 53.5371 17.4766 52.6777 16.9609C51.8184 16.4453 51.1517 15.724 50.6777 14.7969C50.209 13.8698 49.9746 12.7865 49.9746 11.5469C49.9746 10.3073 50.209 9.22135 50.6777 8.28906C51.1517 7.35677 51.8184 6.63281 52.6777 6.11719C53.5371 5.60156 54.5527 5.34375 55.7246 5.34375C56.8965 5.34375 57.9121 5.60156 58.7715 6.11719C59.6309 6.63281 60.2949 7.35677 60.7637 8.28906C61.2376 9.22135 61.4746 10.3073 61.4746 11.5469C61.4746 12.7865 61.2376 13.8698 60.7637 14.7969C60.2949 15.724 59.6309 16.4453 58.7715 16.9609C57.9121 17.4766 56.8965 17.7344 55.7246 17.7344ZM55.7402 15.4687C56.3757 15.4687 56.9069 15.2943 57.334 14.9453C57.7611 14.5911 58.0788 14.1172 58.2871 13.5234C58.5007 12.9297 58.6074 12.2682 58.6074 11.5391C58.6074 10.8047 58.5007 10.1406 58.2871 9.54687C58.0788 8.94792 57.7611 8.47135 57.334 8.11719C56.9069 7.76302 56.3757 7.58594 55.7402 7.58594C55.0892 7.58594 54.5475 7.76302 54.1152 8.11719C53.6882 8.47135 53.3678 8.94792 53.1543 9.54687C52.946 10.1406 52.8418 10.8047 52.8418 11.5391C52.8418 12.2682 52.946 12.9297 53.1543 13.5234C53.3678 14.1172 53.6882 14.5911 54.1152 14.9453C54.5475 15.2943 55.0892 15.4687 55.7402 15.4687ZM63.875 17.5V5.5H66.6172V7.5H66.7422C66.9609 6.80729 67.3359 6.27344 67.8672 5.89844C68.4036 5.51823 69.0156 5.32812 69.7031 5.32812C69.8594 5.32812 70.0339 5.33594 70.2266 5.35156C70.4245 5.36198 70.5885 5.38021 70.7188 5.40625V8.00781C70.599 7.96615 70.4089 7.92969 70.1484 7.89844C69.8932 7.86198 69.6458 7.84375 69.4063 7.84375C68.8906 7.84375 68.4271 7.95573 68.0156 8.17969C67.6094 8.39844 67.2891 8.70312 67.0547 9.09375C66.8203 9.48437 66.7031 9.9349 66.7031 10.4453V17.5H63.875ZM72.7227 17.5V1.5H78.7227C79.9518 1.5 80.9831 1.71354 81.8164 2.14062C82.6549 2.56771 83.2878 3.16667 83.7148 3.9375C84.1471 4.70312 84.3633 5.59635 84.3633 6.61719C84.3633 7.64323 84.1445 8.53385 83.707 9.28906C83.2747 10.0391 82.6367 10.6198 81.793 11.0312C80.9492 11.4375 79.9128 11.6406 78.6836 11.6406H74.4102V9.23437H78.293C79.0117 9.23437 79.6003 9.13542 80.0586 8.9375C80.5169 8.73437 80.8555 8.4401 81.0742 8.05469C81.2982 7.66406 81.4102 7.1849 81.4102 6.61719C81.4102 6.04948 81.2982 5.5651 81.0742 5.16406C80.8503 4.75781 80.5091 4.45052 80.0508 4.24219C79.5924 4.02865 79.0013 3.92188 78.2773 3.92188H75.6211V17.5H72.7227ZM80.9883 10.25L84.9492 17.5H81.7148L77.8242 10.25H80.9883ZM90.3594 17.7422C89.599 17.7422 88.9141 17.6068 88.3047 17.3359C87.7005 17.0599 87.2214 16.6536 86.8672 16.1172C86.5182 15.5807 86.3438 14.9193 86.3438 14.1328C86.3438 13.4557 86.4688 12.8958 86.7188 12.4531C86.9688 12.0104 87.3099 11.6562 87.7422 11.3906C88.1745 11.125 88.6615 10.9245 89.2031 10.7891C89.75 10.6484 90.3151 10.5469 90.8984 10.4844C91.6016 10.4115 92.1719 10.3464 92.6094 10.2891C93.0469 10.2266 93.3646 10.1328 93.5625 10.0078C93.7656 9.8776 93.8672 9.67708 93.8672 9.40625V9.35938C93.8672 8.77083 93.6927 8.3151 93.3438 7.99219C92.9948 7.66927 92.4922 7.50781 91.8359 7.50781C91.1432 7.50781 90.5938 7.65885 90.1875 7.96094C89.7865 8.26302 89.5156 8.61979 89.375 9.03125L86.7344 8.65625C86.9427 7.92708 87.2865 7.31771 87.7656 6.82812C88.2448 6.33333 88.8307 5.96354 89.5234 5.71875C90.2161 5.46875 90.9818 5.34375 91.8203 5.34375C92.3984 5.34375 92.974 5.41146 93.5469 5.54687C94.1198 5.68229 94.6432 5.90625 95.1172 6.21875C95.5911 6.52604 95.9714 6.94531 96.2578 7.47656C96.5495 8.00781 96.6953 8.67187 96.6953 9.46875V17.5H93.9766V15.8516H93.8828C93.7109 16.1849 93.4688 16.4974 93.1563 16.7891C92.849 17.0755 92.4609 17.3073 91.9922 17.4844C91.5286 17.6563 90.9844 17.7422 90.3594 17.7422ZM91.0938 15.6641C91.6615 15.6641 92.1536 15.5521 92.5703 15.3281C92.987 15.099 93.3073 14.7969 93.5312 14.4219C93.7604 14.0469 93.875 13.638 93.875 13.1953V11.7812C93.7865 11.8542 93.6354 11.9219 93.4219 11.9844C93.2135 12.0469 92.9792 12.1016 92.7188 12.1484C92.4583 12.1953 92.2005 12.237 91.9453 12.2734C91.6901 12.3099 91.4688 12.3411 91.2813 12.3672C90.8594 12.4245 90.4818 12.5182 90.1484 12.6484C89.8151 12.7786 89.5521 12.9609 89.3594 13.1953C89.1667 13.4245 89.0703 13.7214 89.0703 14.0859C89.0703 14.6068 89.2604 15 89.6406 15.2656C90.0208 15.5312 90.5052 15.6641 91.0938 15.6641ZM99.5391 22V5.5H102.32V7.48437H102.484C102.63 7.19271 102.836 6.88281 103.102 6.55469C103.367 6.22135 103.727 5.9375 104.18 5.70312C104.633 5.46354 105.211 5.34375 105.914 5.34375C106.841 5.34375 107.677 5.58073 108.422 6.05469C109.172 6.52344 109.766 7.21875 110.203 8.14062C110.646 9.05729 110.867 10.1823 110.867 11.5156C110.867 12.8333 110.651 13.9531 110.219 14.875C109.786 15.7969 109.198 16.5 108.453 16.9844C107.708 17.4688 106.865 17.7109 105.922 17.7109C105.234 17.7109 104.664 17.5964 104.211 17.3672C103.758 17.138 103.393 16.862 103.117 16.5391C102.846 16.2109 102.635 15.901 102.484 15.6094H102.367V22H99.5391ZM102.313 11.5C102.313 12.276 102.422 12.9557 102.641 13.5391C102.865 14.1224 103.185 14.5781 103.602 14.9062C104.023 15.2292 104.534 15.3906 105.133 15.3906C105.758 15.3906 106.281 15.224 106.703 14.8906C107.125 14.5521 107.443 14.0911 107.656 13.5078C107.875 12.9193 107.984 12.25 107.984 11.5C107.984 10.7552 107.878 10.0937 107.664 9.51562C107.451 8.9375 107.133 8.48437 106.711 8.15625C106.289 7.82812 105.763 7.66406 105.133 7.66406C104.529 7.66406 104.016 7.82292 103.594 8.14062C103.172 8.45833 102.852 8.90365 102.633 9.47656C102.419 10.0495 102.313 10.724 102.313 11.5ZM116.117 10.4687V17.5H113.289V1.5H116.055V7.53906H116.195C116.477 6.86198 116.911 6.32812 117.5 5.9375C118.094 5.54167 118.849 5.34375 119.766 5.34375C120.599 5.34375 121.326 5.51823 121.945 5.86719C122.565 6.21615 123.044 6.72656 123.383 7.39844C123.727 8.07031 123.898 8.89062 123.898 9.85937V17.5H121.07V10.2969C121.07 9.48958 120.862 8.86198 120.445 8.41406C120.034 7.96094 119.456 7.73437 118.711 7.73437C118.211 7.73437 117.763 7.84375 117.367 8.0625C116.977 8.27604 116.669 8.58594 116.445 8.99219C116.227 9.39844 116.117 9.89062 116.117 10.4687ZM130.234 17.7422C129.474 17.7422 128.789 17.6068 128.18 17.3359C127.576 17.0599 127.096 16.6536 126.742 16.1172C126.393 15.5807 126.219 14.9193 126.219 14.1328C126.219 13.4557 126.344 12.8958 126.594 12.4531C126.844 12.0104 127.185 11.6562 127.617 11.3906C128.049 11.125 128.536 10.9245 129.078 10.7891C129.625 10.6484 130.19 10.5469 130.773 10.4844C131.477 10.4115 132.047 10.3464 132.484 10.2891C132.922 10.2266 133.24 10.1328 133.438 10.0078C133.641 9.8776 133.742 9.67708 133.742 9.40625V9.35938C133.742 8.77083 133.568 8.3151 133.219 7.99219C132.87 7.66927 132.367 7.50781 131.711 7.50781C131.018 7.50781 130.469 7.65885 130.063 7.96094C129.661 8.26302 129.391 8.61979 129.25 9.03125L126.609 8.65625C126.818 7.92708 127.161 7.31771 127.641 6.82812C128.12 6.33333 128.706 5.96354 129.398 5.71875C130.091 5.46875 130.857 5.34375 131.695 5.34375C132.273 5.34375 132.849 5.41146 133.422 5.54687C133.995 5.68229 134.518 5.90625 134.992 6.21875C135.466 6.52604 135.846 6.94531 136.133 7.47656C136.424 8.00781 136.57 8.67187 136.57 9.46875V17.5H133.852V15.8516H133.758C133.586 16.1849 133.344 16.4974 133.031 16.7891C132.724 17.0755 132.336 17.3073 131.867 17.4844C131.404 17.6563 130.859 17.7422 130.234 17.7422ZM130.969 15.6641C131.536 15.6641 132.029 15.5521 132.445 15.3281C132.862 15.099 133.182 14.7969 133.406 14.4219C133.635 14.0469 133.75 13.638 133.75 13.1953V11.7812C133.661 11.8542 133.51 11.9219 133.297 11.9844C133.089 12.0469 132.854 12.1016 132.594 12.1484C132.333 12.1953 132.076 12.237 131.82 12.2734C131.565 12.3099 131.344 12.3411 131.156 12.3672C130.734 12.4245 130.357 12.5182 130.023 12.6484C129.69 12.7786 129.427 12.9609 129.234 13.1953C129.042 13.4245 128.945 13.7214 128.945 14.0859C128.945 14.6068 129.135 15 129.516 15.2656C129.896 15.5312 130.38 15.6641 130.969 15.6641ZM144.727 17.7344C143.523 17.7344 142.484 17.4844 141.609 16.9844C140.74 16.4792 140.07 15.7656 139.602 14.8437C139.133 13.9167 138.898 12.8255 138.898 11.5703C138.898 10.3359 139.133 9.2526 139.602 8.32031C140.076 7.38281 140.737 6.65365 141.586 6.13281C142.435 5.60677 143.432 5.34375 144.578 5.34375C145.318 5.34375 146.016 5.46354 146.672 5.70312C147.333 5.9375 147.917 6.30208 148.422 6.79687C148.932 7.29167 149.333 7.92187 149.625 8.6875C149.917 9.44792 150.063 10.3542 150.063 11.4062V12.2734H140.227V10.3672H147.352C147.346 9.82552 147.229 9.34375 147 8.92187C146.771 8.49479 146.451 8.15885 146.039 7.91406C145.633 7.66927 145.159 7.54687 144.617 7.54687C144.039 7.54687 143.531 7.6875 143.094 7.96875C142.656 8.24479 142.315 8.60937 142.07 9.0625C141.831 9.51042 141.708 10.0026 141.703 10.5391V12.2031C141.703 12.901 141.831 13.5 142.086 14C142.341 14.4948 142.698 14.875 143.156 15.1406C143.615 15.401 144.151 15.5312 144.766 15.5312C145.177 15.5312 145.549 15.474 145.883 15.3594C146.216 15.2396 146.505 15.0651 146.75 14.8359C146.995 14.6068 147.18 14.3229 147.305 13.9844L149.945 14.2812C149.779 14.9792 149.461 15.5885 148.992 16.1094C148.529 16.625 147.935 17.026 147.211 17.3125C146.487 17.5937 145.659 17.7344 144.727 17.7344ZM155.283 1.5V17.5H152.455V1.5H155.283Z" fill="#2B3838"/>
</svg>
